<?xml version="1.0" standalone="no"?>
<!DOCTYPE svg PUBLIC "-//W3C//DTD SVG 20010904//EN"
 "http://www.w3.org/TR/2001/REC-SVG-20010904/DTD/svg10.dtd">
<svg version="1.0" xmlns="http://www.w3.org/2000/svg"
 width="260.000000pt" height="260.000000pt" viewBox="0 0 260.000000 260.000000"
 preserveAspectRatio="xMidYMid meet">
<metadata>
Created by potrace 1.11, written by Peter Selinger 2001-2013
</metadata>
<g transform="translate(0.000000,260.000000) scale(0.100000,-0.100000)"
fill="#000000" stroke="none">
<path d="M0 1300 l0 -1300 1300 0 1300 0 0 1300 0 1300 -1300 0 -1300 0 0
-1300z m1202 885 c115 -24 228 -85 312 -169 39 -39 84 -96 100 -126 16 -30 30
-57 32 -59 1 -1 28 9 58 24 153 75 328 23 413 -122 35 -61 44 -176 18 -253 -9
-28 -13 -55 -9 -59 5 -4 31 -16 58 -26 26 -10 71 -36 100 -59 249 -203 231
-574 -36 -747 -112 -72 -93 -70 -928 -67 l-745 3 -60 24 c-162 64 -298 216
-334 372 -13 57 -13 202 0 259 28 120 131 262 238 325 50 30 51 30 51 82 0 82
27 191 67 273 27 57 55 94 117 155 96 95 173 139 288 165 103 23 166 24 260 5z"/>
</g>
</svg>
